<svg width="100%" height="100%" viewBox="0 0 96 40" fill="none" xmlns="http://www.w3.org/2000/svg" data-fc-idx="0">
<g clip-path="url(#clip0_4289_10488)" style="fill: none !important;">
<path d="M46.9953 10.3997L43.861 7.27652C44.6311 3.88333 47.0698 1.11698 48.0586 0.106445C49.2423 1.31593 52.4955 5.03281 52.4955 9.32917C52.4955 13.0224 50.0917 16.2845 48.6655 17.8966V14.4198C48.6655 12.9008 48.0729 11.4734 46.9953 10.3997Z" fill="#F4EDE6" style="fill: rgb(244, 237, 230) !important;"/>
<path d="M53.6238 7.64918C53.7125 8.1955 53.7648 8.75603 53.7648 9.32762C53.7648 13.5529 51.0741 17.134 49.5307 18.8409H53.104C54.2893 18.8409 55.4033 18.3814 56.2415 17.5461L60.4423 13.3603C61.2806 12.525 61.7417 11.415 61.7417 10.2339V5.81284H57.3048C56.1195 5.81284 55.0055 6.27232 54.1673 7.10759L53.6238 7.64918Z" fill="#F4EDE6" style="fill: rgb(244, 237, 230) !important;"/>
<path d="M67.5762 19.4724C67.5762 17.0345 65.7384 15.0513 63.2918 15.0513H60.5374L57.1368 18.4382C56.0593 19.5119 54.6268 20.1024 53.1024 20.1024H49.5624L53.3655 23.8919H63.2902C65.7368 23.8919 67.5746 21.9088 67.5746 19.4708L67.5762 19.4724Z" fill="#F4EDE6" style="fill: rgb(244, 237, 230) !important;"/>
<path d="M47.3994 17.9472V14.4198C47.3994 13.2387 46.9383 12.1287 46.1 11.2934L41.8992 7.10759C41.061 6.27232 39.947 5.81284 38.7617 5.81284H34.3248V10.2339C34.3248 11.415 34.7859 12.525 35.6242 13.3603L36.0536 13.7882H43.2256L47.3994 17.9472Z" fill="#F4EDE6" style="fill: rgb(244, 237, 230) !important;"/>
<path d="M42.7011 15.0513L47.138 19.4724L42.7011 23.8935H32.9779L28.541 19.4724L32.9779 15.0513H42.7011Z" fill="#F4EDE6" style="fill: rgb(244, 237, 230) !important;"/>
</g>
<path d="M6.40421 28.6665H0V39.6452H1.82977V35.2232H5.94677V33.3934H1.82977V30.4963H6.40421V28.6665Z" fill="#F4EDE6" style="fill: rgb(244, 237, 230) !important;"/>
<path fill-rule="evenodd" clip-rule="evenodd" d="M15.4006 31.7161H13.5708V32.589C12.8591 31.9508 11.9251 31.5636 10.9024 31.5636C8.67077 31.5636 6.86166 33.4069 6.86166 35.6806C6.86166 37.9544 8.67077 39.7976 10.9024 39.7976C11.9251 39.7976 12.8591 39.4105 13.5708 38.7723V39.6452H15.4006V31.7161ZM11.0549 38.1203C12.3602 38.1203 13.4183 37.0622 13.4183 35.7569C13.4183 34.4516 12.3602 33.3934 11.0549 33.3934C9.74959 33.3934 8.69143 34.4516 8.69143 35.7569C8.69143 37.0622 9.74959 38.1203 11.0549 38.1203Z" fill="#F4EDE6" style="fill: rgb(244, 237, 230) !important;"/>
<path d="M24.2445 39.6452H22.4147V31.7161H24.2445V32.583C24.7477 31.9612 25.517 31.5636 26.3793 31.5636C27.2872 31.5636 28.0922 32.0045 28.5918 32.6839C29.1511 32.0001 30.0014 31.5636 30.9537 31.5636C32.5868 31.5636 34.0033 32.844 33.9996 34.4608L34.0033 39.6452H32.1735V34.6133C32.1735 33.7711 31.4909 33.0885 30.6487 33.0885C29.8066 33.0885 29.1239 33.7578 29.1239 34.5999V39.6452H27.2941V34.6133C27.2941 33.7711 26.6115 33.0885 25.7693 33.0885C24.9272 33.0885 24.2445 33.7711 24.2445 34.6133V39.6452Z" fill="#F4EDE6" style="fill: rgb(244, 237, 230) !important;"/>
<path d="M17.2304 39.6452H19.0602V35.5282C19.0602 34.3492 20.0159 33.3934 21.1949 33.3934H21.4999V31.5647C21.4745 31.564 21.4491 31.5636 21.4236 31.5636C20.4342 31.5636 19.5637 32.0731 19.0602 32.844V31.7161H17.2304V39.6452Z" fill="#F4EDE6" style="fill: rgb(244, 237, 230) !important;"/>
<path d="M40.865 28.6665L44.0671 34.0818L47.2692 28.6665H49.2514V39.6452H47.4217V31.761L44.0671 37.4342L40.7125 31.761V39.6452H38.8827V28.6665H40.865Z" fill="#F4EDE6" style="fill: rgb(244, 237, 230) !important;"/>
<path d="M88.1342 28.6665V39.6452H86.3044V28.6665H88.1342Z" fill="#F4EDE6" style="fill: rgb(244, 237, 230) !important;"/>
<path d="M51.0812 39.6452H52.911V31.7161H51.0812V39.6452Z" fill="#F4EDE6" style="fill: rgb(244, 237, 230) !important;"/>
<path d="M71.8187 39.6452V31.7161H73.6484V32.844C74.152 32.0731 75.0224 31.5636 76.0119 31.5636C76.0374 31.5636 76.0628 31.564 76.0881 31.5647V33.415C75.9885 33.4008 75.8867 33.3934 75.7832 33.3934C74.6042 33.3934 73.6484 34.3492 73.6484 35.5282V39.6452H71.8187Z" fill="#F4EDE6" style="fill: rgb(244, 237, 230) !important;"/>
<path fill-rule="evenodd" clip-rule="evenodd" d="M71.0563 35.6806C71.0563 35.9951 71.021 36.3013 70.9542 36.5955L64.6769 36.5955C65.0388 37.4896 65.9154 38.1203 66.9393 38.1203C67.701 38.1203 68.3811 37.7713 68.8285 37.2244L70.2926 38.0697C69.546 39.1157 68.3223 39.7976 66.9393 39.7976C64.6655 39.7976 62.8223 37.9544 62.8223 35.6806C62.8223 33.4069 64.6655 31.5636 66.9393 31.5636C69.213 31.5636 71.0563 33.4069 71.0563 35.6806ZM64.6211 34.9182C64.9412 33.9442 65.8581 33.2409 66.9393 33.2409C68.0204 33.2409 68.9373 33.9442 69.2575 34.9182H64.6211Z" fill="#F4EDE6" style="fill: rgb(244, 237, 230) !important;"/>
<path d="M54.7408 31.7161V39.6452H56.5705V34.7658C56.5705 33.7973 57.3556 33.0885 58.3241 33.0885C59.2925 33.0885 60.0776 33.7973 60.0776 34.7658V39.6452H61.9074L61.9036 34.6133C61.9074 32.8597 60.4909 31.5636 58.8578 31.5636C57.9469 31.5636 57.1293 31.963 56.5705 32.5961V31.7161H54.7408Z" fill="#F4EDE6" style="fill: rgb(244, 237, 230) !important;"/>
<path fill-rule="evenodd" clip-rule="evenodd" d="M84.7796 39.6452V31.7161H82.9498V32.589C82.238 31.9507 81.3041 31.5636 80.2814 31.5636C78.0497 31.5636 76.2406 33.4069 76.2406 35.6806C76.2406 37.9544 78.0497 39.7976 80.2814 39.7976C81.3041 39.7976 82.238 39.4105 82.9498 38.7723V39.6452H84.7796ZM80.4339 38.1203C81.7392 38.1203 82.7973 37.0622 82.7973 35.7569C82.7973 34.4516 81.7392 33.3934 80.4339 33.3934C79.1286 33.3934 78.0704 34.4516 78.0704 35.7569C78.0704 37.0622 79.1286 38.1203 80.4339 38.1203Z" fill="#F4EDE6" style="fill: rgb(244, 237, 230) !important;"/>
<path d="M91.6412 34.5871C91.3592 34.4305 91.1838 34.2642 91.1838 34.0033C91.1838 33.7746 91.2917 33.6132 91.4701 33.4559C91.6648 33.2841 91.9462 33.2409 92.2512 33.2409C92.9615 33.2409 93.4413 33.5783 93.7151 34.0031L95.1759 33.1541C94.8621 32.6544 94.4651 32.2837 93.9533 32.002C93.4519 31.7098 92.8774 31.5636 92.2297 31.5636C91.415 31.5636 90.7308 31.7828 90.1772 32.2211C89.634 32.6594 89.354 33.2699 89.354 33.99C89.354 34.5118 89.5034 34.9136 89.7855 35.258C90.0779 35.5919 90.4122 35.7842 90.875 36.0192C91.3546 36.2627 92.0987 36.443 92.0987 36.443C92.0987 36.443 92.7435 36.6232 93.0255 36.7798C93.318 36.9363 93.5 37.1365 93.5 37.3869C93.5 37.7331 93.1333 38.1203 92.2454 38.1203C91.3575 38.1203 90.812 37.7896 90.5062 37.1208L89.0412 37.963C89.2919 38.537 89.6793 38.9856 90.2329 39.3091C90.7865 39.6326 91.4724 39.7976 92.2454 39.7976C93.1229 39.7976 93.8488 39.5837 94.4233 39.1558C95.0083 38.7279 95.3008 38.1383 95.3008 37.3869C95.3008 36.8547 95.1545 36.4164 94.8621 36.072C94.58 35.7172 94.2157 35.4697 93.7979 35.3236L93.7714 35.3143C93.3685 35.1734 93.1 35.0796 92.6033 34.932L92.601 34.9313C92.241 34.8243 91.9331 34.7329 91.6412 34.5871Z" fill="#F4EDE6" style="fill: rgb(244, 237, 230) !important;"/>
<path d="M50.9287 29.7339C50.9287 29.1444 51.4066 28.6665 51.9961 28.6665C52.5856 28.6665 53.0635 29.1444 53.0635 29.7339C53.0635 30.3234 52.5856 30.8012 51.9961 30.8012C51.4066 30.8012 50.9287 30.3234 50.9287 29.7339Z" fill="#F4EDE6" style="fill: rgb(244, 237, 230) !important;"/>
<defs style="fill: none !important;">
<clipPath id="clip0_4289_10488" style="fill: none !important;">
<rect width="39.0352" height="23.7871" fill="#F4EDE6" transform="translate(28.0586)" style="fill: rgb(244, 237, 230) !important;"/>
</clipPath>
</defs>
</svg>